<svg width="20" height="20" xmlns="http://www.w3.org/2000/svg">

 <g>
  <title>background</title>
  <rect fill="none" id="canvas_background" height="402" width="582" y="-1" x="-1"/>
 </g>
 <g>
  <title>Layer 1</title>
  <path id="svg_1" fill="#1d4f76" d="m3,0l0,12l1,0l0,-11l8,0l0,3l0,1l4,0l0,7l1,0l0,-7l0,-1l-4,-4l-1,0l-9,0zm10,1.35352l2.64648,2.64648l-2.64648,0l0,-2.64648zm-9,11.64648l0,3l-0.00781,0.13086l-0.02539,0.12695l-0.04297,0.125l-0.0586,0.11719l-0.07226,0.10742l-0.08594,0.09961l-0.09765,0.08594l-0.10938,0.07226l-0.11719,0.0586l-0.12304,0.04101l-0.12891,0.02735l-0.13086,0.00781l-0.13086,-0.00781l-0.12891,-0.02735l-0.12304,-0.04101l-0.11719,-0.0586l-0.10937,-0.07226l-0.09766,-0.08594l-0.08594,-0.09961l-0.07226,-0.10742l-0.0586,-0.11719l-0.04297,-0.125l-0.02539,-0.12695l-0.00781,-0.13086l-1,0l0.00781,0.18359l0.02735,0.1836l0.04101,0.17969l0.0586,0.17578l0.07421,0.16797l0.0918,0.1621l0.10352,0.15235l0.11718,0.14258l0.13086,0.13086l0.14258,0.11718l0.15235,0.10352l0.16015,0.0918l0.16992,0.07421l0.17579,0.0586l0.17968,0.04101l0.1836,0.02735l0.18359,0.00781l0.18359,-0.00781l0.1836,-0.02735l0.17969,-0.04101l0.17578,-0.0586l0.16992,-0.07421l0.16015,-0.0918l0.15235,-0.10352l0.14258,-0.11718l0.13086,-0.13086l0.11718,-0.14258l0.10352,-0.15235l0.0918,-0.1621l0.07421,-0.16797l0.0586,-0.17578l0.04101,-0.17969l0.02735,-0.1836l0.00781,-0.18359l0,-3l-1,0zm3.5,0a1.5,1.5 0 0 0 -1.5,1.5a1.5,1.5 0 0 0 1.5,1.5l1,0a0.5,0.5 0 0 1 0.5,0.5a0.5,0.5 0 0 1 -0.5,0.5l-2.5,0l0,1l2.5,0a1.5,1.5 0 0 0 1.5,-1.5a1.5,1.5 0 0 0 -1.5,-1.5l-1,0a0.5,0.5 0 0 1 -0.5,-0.5a0.5,0.5 0 0 1 0.5,-0.5l2.5,0l0,-1l-2.5,0zm5.5,0l-0.18359,0.00781l-0.1836,0.02539l-0.17968,0.04297l-0.17579,0.0586l-0.16992,0.07421l-0.16015,0.08985l-0.15235,0.10547l-0.14258,0.11718l-0.13086,0.13086l-0.11718,0.14258l-0.10352,0.15235l-0.0918,0.16015l-0.07421,0.16992l-0.0586,0.17383l-0.04101,0.18164l-0.02735,0.1836l-0.00781,0.18359l0,1l0.00781,0.18359l0.02735,0.1836l0.04101,0.17969l0.0586,0.17578l0.07421,0.16797l0.0918,0.1621l0.10352,0.15235l0.11718,0.14258l0.13086,0.13086l0.14258,0.11718l0.15235,0.10352l0.16015,0.0918l0.16992,0.07421l0.17579,0.0586l0.17968,0.04101l0.1836,0.02735l0.18359,0.00781l0.18359,-0.00781l0.1836,-0.02735l0.17969,-0.04101l0.17578,-0.0586l0.16992,-0.07421l0.16015,-0.0918l0.15235,-0.10352l0.14258,-0.11718l0.13086,-0.13086l0.11718,-0.14258l0.10352,-0.15235l0.0918,-0.1621l0.07421,-0.16797l0.0586,-0.17578l0.04101,-0.17969l0.02735,-0.1836l0.00781,-0.18359l0,-1l-0.00781,-0.18359l-0.02735,-0.1836l-0.04101,-0.18164l-0.0586,-0.17383l-0.07421,-0.16992l-0.0918,-0.16015l-0.10352,-0.15235l-0.11718,-0.14258l-0.13086,-0.13086l-0.14258,-0.11718l-0.15235,-0.10547l-0.16015,-0.08985l-0.16992,-0.07421l-0.17578,-0.0586l-0.17969,-0.04297l-0.1836,-0.02539l-0.18359,-0.00781zm3.51367,0a0.50005,0.50005 0 0 0 -0.51367,0.5l0,4.5l1,0l0,-2.99805l2.09961,2.79883a0.50005,0.50005 0 0 0 0.90039,-0.30078l0,-4.5l-1,0l0,2.99805l-2.09961,-2.79883a0.50005,0.50005 0 0 0 -0.38672,-0.19922zm-3.51367,1l0.13086,0.00781l0.12891,0.02539l0.12304,0.04297l0.11719,0.0586l0.10938,0.07226l0.09765,0.08594l0.08594,0.09766l0.07226,0.10937l0.0586,0.11719l0.04297,0.12304l0.02539,0.12891l0.00781,0.13086l0,1l-0.00781,0.13086l-0.02539,0.12695l-0.04297,0.125l-0.0586,0.11719l-0.07226,0.10742l-0.08594,0.09961l-0.09765,0.08594l-0.10938,0.07226l-0.11719,0.0586l-0.12304,0.04101l-0.12891,0.02735l-0.13086,0.00781l-0.13086,-0.00781l-0.12891,-0.02735l-0.12304,-0.04101l-0.11719,-0.0586l-0.10937,-0.07226l-0.09766,-0.08594l-0.08594,-0.09961l-0.07226,-0.10742l-0.0586,-0.11719l-0.04297,-0.125l-0.02539,-0.12695l-0.00781,-0.13086l0,-1l0.00781,-0.13086l0.02539,-0.12891l0.04297,-0.12304l0.0586,-0.11719l0.07226,-0.10937l0.08594,-0.09766l0.09766,-0.08594l0.10937,-0.07226l0.11719,-0.0586l0.12304,-0.04297l0.12891,-0.02539l0.13086,-0.00781zm-10,5l0,1l14,0l0,-1l-1,0l-12,0l-1,0z"/>
 </g>
</svg>