<svg  xmlns="http://www.w3.org/2000/svg"  class="icon mod-16 mod-stroke mod-black" role="img" aria-label="keyStroked16 icon" viewBox="0 0 16 16" stroke="#282829" fill="none"><path d="M13.54 11.917h.5a.5.5 0 00-.155-.362l-.345.362zm0 0h.5V13.647a.962.962 0 01-.291.671.962.962 0 01-.671.291h0-.001 0-.002 0-.002 0-.002 0-.002 0-.002 0-.002 0-.006 0-.004 0H11.37h0-.006 0-.002 0-.002 0-.002 0-.002 0-.002 0-.002 0-.001 0-.001 0-.001 0-.001 0v-.5m2.192-2.192l.345-.362h0l-.002-.002-.007-.006-.025-.025-.1-.094-.364-.35c-.309-.295-.735-.705-1.208-1.16a284.942 284.942 0 01-2.815-2.74c-.166-.166-.173-.366-.159-.674l.003-.082v-.008l.001-.039c.105-1.296-.224-2.487-.947-3.364-.728-.882-1.821-1.402-3.15-1.402-2.526 0-4.072 2.1-4.072 3.964 0 .868.182 2 .868 2.915.707.942 1.888 1.573 3.708 1.52a6 6 0 00.254-.007h.005c.09-.005.184-.015.261-.023l.038-.004c.091-.009.165-.015.232-.016.131 0 .19.022.23.052l-.001-.001.028.024.084.077.259.247.116.112c.18.173.39.375.597.57a.685.685 0 00.514.174c.084-.004.169-.02.25-.044a1.265 1.265 0 00-.05.284.792.792 0 00.239.631c.069.065.236.225.505.265a.95.95 0 00.373-.022.797.797 0 00-.061.273.67.67 0 00.126.414c.05.072.179.209.293.33.131.139.296.309.456.474l.433.444.14.144.04.04.01.01.003.003h.001l.356-.35m0 0v.5a.5.5 0 01-.356-.15l.356-.35zM4.612 4.647a.5.5 0 01-.503.498.5.5 0 01-.503-.498.5.5 0 01.503-.497.5.5 0 01.503.497z" stroke-linecap="round" stroke-linejoin="round"></path></svg>